<?xml version="1.0" encoding="utf-8"?>
<!-- Generator: Adobe Illustrator 19.0.0, SVG Export Plug-In . SVG Version: 6.00 Build 0)  -->
<svg version="1.1" id="Layer_1" xmlns="http://www.w3.org/2000/svg" xmlns:xlink="http://www.w3.org/1999/xlink" x="0px" y="0px"
	 viewBox="-10 324.5 589.6 145.5" style="enable-background:new -10 324.5 589.6 145.5;" xml:space="preserve">
<style type="text/css">
	.st0{fill:#0E3C58;}
	.st1{fill:#D24228;}
</style>
<g id="XMLID_1_">
	<path id="XMLID_49_" class="st0" d="M292.2,397.6c2.9,0.5,5.8,0.9,8.6,1.4c2.6,0.4,5.1,0.8,7.7,1.3c0.3,0.1,0.8,0.4,0.9,0.8
		c1.3,5.9,5,9.3,10.8,10.7c5.7,1.4,11.2,1.1,16.7-1c3.4-1.3,5.5-3.7,6-7.3c0.4-2.8-0.7-5-2.8-6.9c-2.2-2-4.9-3.1-7.7-3.9
		c-4.8-1.3-9.7-2.5-14.6-3.8c-4.7-1.2-9.2-2.8-13.4-5.3c-4.6-2.8-8-6.7-9-12.1c-2.2-10.8,1.7-21,12.8-26.2c4.1-1.9,8.5-3.1,13-3.6
		c8.6-1,16.8,0.7,24.5,4.6c6.2,3.2,9.8,8.6,11.4,15.4c0.2,0.7,0.5,0.7,1,0.7c16.8,0,33.6,0,50.3,0c0.3,0,0.6,0,1,0
		c0,3.8,0,7.6,0,11.4c-6.4,0-12.8,0-19.2,0c0,16.9,0,33.8,0,50.6c-4.6,0-9.2,0-13.8,0c0-16.8,0-33.5,0-50.4c-6.6,0-13.1,0-19.8,0
		c0-2.3,0-4.4,0-6.6c-3.1-0.4-6.1-0.9-9.1-1.3c-2.2-0.3-4.4-0.6-6.6-1c-0.2,0-0.5-0.4-0.6-0.7c-0.6-2-1.5-3.8-2.9-5.3
		c-1.8-1.9-4.1-2.8-6.7-3.2c-2.6-0.4-5.2-0.7-7.8-0.5c-3.1,0.3-6.1,1-8.4,3.4c-2.4,2.5-2.9,7-1,9.6c0.5,0.7,1.2,1.3,2,1.8
		c2.8,1.8,6,2.6,9.2,3.5c6.1,1.6,12.2,3.1,18.2,4.9c5.1,1.5,9.5,4.2,13,8.3c2.5,2.9,3.9,6.3,4.4,10.2c0.6,5.7-0.3,11.1-3.1,16.1
		c-2.9,5-7.3,8.1-12.6,10.2c-3.8,1.5-7.8,2.4-11.8,2.9c-9.5,1.2-18.5-0.4-27-4.9c-7.1-3.8-11.4-9.8-12.8-17.8
		c-0.3-1.8-0.4-3.7-0.6-5.5C292.1,398,292.2,397.8,292.2,397.6z"/>
	<path id="XMLID_45_" class="st0" d="M404.9,424.3c0.1-0.3,0.2-0.5,0.3-0.7c9.2-20.2,18.4-40.3,27.6-60.5c0.2-0.6,0.5-0.7,1.1-0.7
		c4.1,0,8.2,0,12.3,0c0.6,0,0.9,0.2,1.1,0.7c8.8,19.8,17.7,39.6,26.5,59.4c0.1,0.3,0.4,0.5,0.5,0.7c0.1,0,0.1-0.1,0.2-0.1
		c0-0.5,0-1,0-1.5c0-19.2,0-38.3,0-57.5c0-0.3,0-0.6,0-0.8c0.1-0.6,0.3-0.9,1-0.9c9,0,18,0,27,0c2.9,0,5.9,0.1,8.7,1.1
		c7,2.5,11.4,7.2,12.7,14.5c1,5.8,0.3,11.4-3.3,16.3c-2.6,3.7-6.2,5.8-10.4,7.1c-0.1,0-0.1,0-0.3,0.1c5.8,7.6,11.5,15.2,17.4,22.9
		c-0.4,0-0.6,0-0.8,0c-5.1,0-10.2,0-15.3,0c-0.5,0-0.8-0.1-1.1-0.6c-4.9-7-9.9-14.1-14.8-21.1c-0.3-0.4-0.5-0.5-1-0.5
		c-1.9,0-3.9,0-5.9,0c0,0.6-0.1,1.1-0.1,1.7c0,5.8,0,11.5,0,17.3c0,0.9-0.1,1.7-0.1,2.6c-0.1,0.7-0.6,0.8-1.2,0.8
		c-2.4,0-4.9,0-7.3,0c-5.9,0-11.7,0-17.6,0c-0.5,0-0.7-0.1-1-0.6c-1.9-4.2-3.7-8.3-5.6-12.5c-0.2-0.5-0.5-0.6-1-0.6
		c-10,0-20,0-30.1,0c-0.6,0-0.8,0.2-1.1,0.7c-1.9,4.1-3.9,8.1-5.8,12.1c-0.2,0.5-0.4,0.7-1,0.7c-3.7,0-7.3,0-11,0
		C405.4,424.3,405.2,424.3,404.9,424.3z M486.9,393.4c0.1,0,0.2,0.1,0.3,0.1c5.2,0,10.5,0.2,15.7-0.6c3-0.4,5.3-2.4,6-5.3
		c0.5-2,0.5-4,0.2-6c-0.4-3.1-2.1-5.2-5.1-6c-1.3-0.4-2.7-0.6-4.1-0.7c-2.6-0.1-5.3-0.1-8-0.2c-1.6,0-3.3,0-4.9,0
		C486.9,381,486.9,387.2,486.9,393.4z M450.3,398c-3.4-8-6.8-16-10.2-24.1c-3.5,8.1-6.9,16-10.4,24.1C436.6,398,443.5,398,450.3,398
		z"/>
	<path id="XMLID_44_" class="st0" d="M86,415.6c-4-3.8-7.9-7.5-11.9-11.3c0.8-1.4,1.6-2.7,2.4-4.1c1.6-3,2.7-6.3,3.2-9.7
		c1.2-8.3-0.7-15.9-5.8-22.6c-4.5-5.8-10.4-9.5-17.6-11.1c-2.9-0.7-5.9-0.8-8.8-0.6c-7.5,0.7-13.9,3.7-19.1,9.2
		c-3.9,4.1-6.4,8.9-7.6,14.5c-0.7,3.3-0.8,6.6-0.4,10c0.7,5.1,2.5,9.8,5.6,13.9c4.5,5.8,10.2,9.7,17.4,11.4c8.5,2,16.4,0.2,23.6-4.4
		c0.4-0.3,0.7-0.4,1.1,0c3.9,3.5,7.7,7.1,11.6,10.6c0.1,0.1,0.1,0.1,0.2,0.2c-15.9,14-42.8,15.9-61.2-0.7
		c-19.8-17.8-20.1-47-4.5-64.9c18.5-21.3,47.8-21.1,66.2-5.5C101.3,368.4,101.1,398.3,86,415.6z"/>
	<path id="XMLID_43_" class="st0" d="M225.3,402c3.7,1.9,7.4,3.7,11.1,5.7c0-15.2,0-30.3,0-45.4c4.7,0,9.3,0,13.9,0
		c0,0.3,0,0.6,0,0.9c0,10.9,0,21.8,0,32.7c0,0.2,0,0.4,0,0.5c0,0.2,0.1,0.3,0.2,0.4c0.1-0.1,0.3-0.2,0.4-0.3
		c0.6-0.9,1.3-1.8,1.9-2.7c7.1-10.3,14.3-20.7,21.4-31.1c0.3-0.4,0.6-0.6,1.1-0.6c5.2,0,10.3,0,15.5,0c0.2,0,0.4,0,0.8,0
		c-7.8,11.8-15.6,23.5-23.3,35.3c8.4,8.9,16.7,17.8,25.1,26.9c-0.4,0-0.7,0-1,0c-5.7,0-11.4,0-17.1,0c-0.6,0-1-0.2-1.4-0.6
		c-5-5.4-9.9-10.7-14.9-16.1c-0.2-0.2-0.3-0.4-0.5-0.7c-1.2,1.6-2.3,3-3.3,4.5c-1.5,2.1-3.1,4.1-4.6,6.2c-0.2,0.3-0.3,0.6-0.3,1
		c0,1.8,0,3.5,0,5.3c-4.6,0-9.2,0-13.9,0c0-4.9,0-9.8,0-14.7c-1.2,1.5-2.3,3-3.5,4.3c-5,5.6-11.1,9.3-18.6,10.6
		c-14,2.4-28.6-4.4-34.8-18.7c-1.2-2.8-2-5.8-2.3-8.9c-1-10.6,2.3-19.7,10.1-27c4.2-4,9.4-6.3,15-7.5c3-0.6,6.1-0.9,9.2-0.6
		c6.5,0.6,12.3,3.1,17.3,7.3c3.3,2.8,5.8,6,7.2,9.1c-3.8,1.9-7.6,3.9-11.4,5.8c-4.3-6.2-10.1-9.4-17.7-8.7c-4.8,0.4-8.8,2.6-12,6.2
		c-6.7,7.8-5.7,19.8,2.3,26.2C205.5,413.9,218.2,413.2,225.3,402z"/>
	<path id="XMLID_42_" class="st0" d="M143.7,362.4c4.6,0,9.1,0,13.6,0c0.1,0.8,0.1,1.5,0.1,2.2c0,7.9,0,15.8,0,23.8
		c0,4.3,0,8.5-0.1,12.7c-0.2,4.6-0.8,9.1-2.9,13.2c-2.6,5.1-6.9,8.3-12.4,9.9c-3,0.9-6.1,1.4-9.3,1.6c-5.2,0.3-10.2-0.4-15-2.2
		c-6.7-2.5-10.8-7.3-12.5-14.3c-0.6-2.4-0.9-4.9-0.9-7.4c0-13.1-0.1-26.2-0.1-39.2c0-0.1,0-0.2,0-0.4c4.6,0,9.3,0,13.9,0
		c0,2.7,0,5.4,0,8c0,10.7,0,21.5,0,32.2c0,1.9,0.3,3.9,1.1,5.7c1.5,3.6,4.5,5.4,8.2,5.9c3.1,0.5,6.2,0.2,9.2-0.5
		c3.8-0.9,5.9-3.6,6.5-7.3c0.3-2.1,0.5-4.2,0.5-6.3c0-12.3,0-24.5,0-36.8C143.7,363,143.7,362.7,143.7,362.4z"/>
	<path id="XMLID_41_" class="st0" d="M546.8,374c-6.7,0-13.2,0-19.8,0c0-3.8,0-7.6,0-11.5c17.5,0,35,0,52.6,0c0,3.8,0,7.5,0,11.3
		c-6.4,0-12.8,0-19.3,0c0,16.9,0,33.7,0,50.6c-4.5,0-9,0-13.5,0C546.8,407.6,546.8,390.9,546.8,374z"/>
	<path id="XMLID_40_" class="st1" d="M39.1,399.6c-5.4-4.8-7.5-10.7-5.7-17.7c1.8-6.9,6.5-11.1,13.4-12.5
		c9.4-1.9,18.4,4.1,20.2,13.5c1.8,9.6-4.4,18.8-14.1,20.4c-2.3,0.4-4.7,0.3-7-0.3c-0.1,0-0.2-0.1-0.3-0.1l0,0
		c-1.4-0.8-2.8-1.6-4.3-2.4C40.6,400.2,39.8,399.9,39.1,399.6z"/>
	<path id="XMLID_39_" class="st0" d="M162.7,424.3c0-20.6,0-41.1,0-61.7c0.2,0,0.4,0,0.7,0c3.4,0,6.8,0,10.2,0
		c0.5,0,0.8,0.1,0.9,0.6c0.3,0.8,0.6,1.5,1,2.3c0.1,0.2,0.3,0.4,0.6,0.7c0,19.2,0,38.7,0,58.2C171.6,424.3,167.2,424.3,162.7,424.3z
		"/>
	<path id="XMLID_35_" class="st0" d="M39.1,399.6c0.7,0.3,1.5,0.6,2.2,1c1.4,0.8,2.8,1.6,4.3,2.4C43.1,402.3,41,401.2,39.1,399.6z"
		/>
	<path id="XMLID_34_" class="st0" d="M45.5,402.9c0.1,0,0.2,0.1,0.3,0.1C45.7,403,45.6,402.9,45.5,402.9z"/>
</g>
<g>
	<path class="st0" d="M249.9,442.8c0,2.2-0.6,3.9-1.7,5.1c-1.1,1.2-2.7,1.8-4.7,1.8c-2,0-3.6-0.6-4.7-1.8c-1.1-1.2-1.6-2.9-1.6-5.2
		c0-2.2,0.6-4,1.7-5.2c1.1-1.2,2.7-1.8,4.7-1.8c2,0,3.6,0.6,4.7,1.8C249.4,438.9,249.9,440.6,249.9,442.8z M239.6,442.8
		c0,1.7,0.3,2.9,1,3.8c0.7,0.9,1.7,1.3,3,1.3c1.3,0,2.3-0.4,3-1.3c0.7-0.9,1-2.1,1-3.8c0-1.7-0.3-2.9-1-3.8c-0.7-0.9-1.7-1.3-3-1.3
		c-1.3,0-2.3,0.4-3,1.3C239.9,439.9,239.6,441.1,239.6,442.8z"/>
	<path class="st0" d="M254.9,449.6l-3.9-10.3h2.3l2.1,6c0.4,1,0.6,1.8,0.6,2.4h0.1c0.1-0.4,0.3-1.3,0.6-2.4l2.1-6h2.3l-3.9,10.3
		H254.9z"/>
	<path class="st0" d="M267.2,449.8c-1.6,0-2.8-0.5-3.7-1.4c-0.9-0.9-1.3-2.2-1.3-3.8c0-1.7,0.4-3,1.3-4c0.8-1,2-1.4,3.4-1.4
		c1.4,0,2.4,0.4,3.2,1.2c0.8,0.8,1.2,2,1.2,3.4v1.2h-6.8c0,1,0.3,1.8,0.8,2.3c0.5,0.5,1.2,0.8,2.1,0.8c0.6,0,1.2-0.1,1.7-0.2
		c0.5-0.1,1.1-0.3,1.7-0.6v1.8c-0.5,0.3-1.1,0.4-1.6,0.5C268.6,449.7,267.9,449.8,267.2,449.8z M266.8,440.8c-0.7,0-1.2,0.2-1.7,0.7
		c-0.4,0.4-0.7,1.1-0.7,1.9h4.7c0-0.8-0.2-1.5-0.6-1.9C268.1,441,267.5,440.8,266.8,440.8z"/>
	<path class="st0" d="M278.9,439.2c0.4,0,0.8,0,1.1,0.1l-0.2,2c-0.3-0.1-0.6-0.1-1-0.1c-0.9,0-1.6,0.3-2.1,0.9
		c-0.5,0.6-0.8,1.3-0.8,2.2v5.4h-2.2v-10.3h1.7l0.3,1.8h0.1c0.3-0.6,0.8-1.1,1.3-1.5C277.7,439.3,278.3,439.2,278.9,439.2z"/>
	<path class="st0" d="M294.8,439.2c0,0.9-0.3,1.6-0.8,2.1c-0.5,0.6-1.2,1-2.1,1.2v0.1c1.1,0.1,1.9,0.5,2.4,1
		c0.5,0.5,0.8,1.3,0.8,2.2c0,1.3-0.5,2.3-1.4,3c-0.9,0.7-2.2,1.1-3.9,1.1c-1.5,0-2.8-0.2-3.8-0.7v-1.9c0.6,0.3,1.2,0.5,1.8,0.7
		c0.6,0.2,1.3,0.2,1.9,0.2c1.1,0,1.8-0.2,2.4-0.6c0.5-0.4,0.8-1,0.8-1.8c0-0.7-0.3-1.3-0.9-1.6s-1.5-0.5-2.7-0.5h-1.2v-1.8h1.2
		c2.2,0,3.2-0.7,3.2-2.2c0-0.6-0.2-1-0.6-1.3c-0.4-0.3-0.9-0.5-1.7-0.5c-0.5,0-1,0.1-1.5,0.2c-0.5,0.1-1,0.4-1.7,0.8l-1.1-1.5
		c1.2-0.9,2.7-1.4,4.3-1.4c1.4,0,2.4,0.3,3.2,0.9C294.4,437.3,294.8,438.1,294.8,439.2z"/>
	<path class="st0" d="M301.6,441.1c1.4,0,2.4,0.4,3.2,1.1s1.2,1.7,1.2,3c0,1.4-0.5,2.6-1.4,3.4c-0.9,0.8-2.2,1.2-3.9,1.2
		c-1.5,0-2.7-0.2-3.6-0.7v-2c0.5,0.3,1.1,0.5,1.7,0.7c0.7,0.2,1.3,0.2,1.8,0.2c1,0,1.7-0.2,2.2-0.7c0.5-0.4,0.8-1.1,0.8-1.9
		c0-1.6-1-2.4-3.1-2.4c-0.3,0-0.7,0-1.1,0.1c-0.4,0.1-0.8,0.1-1.1,0.2l-1-0.6l0.5-6.6h7.1v1.9h-5.1l-0.3,3.4c0.2,0,0.5-0.1,0.8-0.1
		C300.7,441.2,301.1,441.1,301.6,441.1z"/>
	<path class="st0" d="M317.5,442.2l3.2-6.2h2.4l-4.5,8.3v5.3h-2.2v-5.2l-4.5-8.4h2.4L317.5,442.2z"/>
	<path class="st0" d="M329.2,449.8c-1.6,0-2.8-0.5-3.7-1.4c-0.9-0.9-1.3-2.2-1.3-3.8c0-1.7,0.4-3,1.3-4c0.8-1,2-1.4,3.4-1.4
		c1.4,0,2.4,0.4,3.2,1.2c0.8,0.8,1.2,2,1.2,3.4v1.2h-6.8c0,1,0.3,1.8,0.8,2.3c0.5,0.5,1.2,0.8,2.1,0.8c0.6,0,1.2-0.1,1.7-0.2
		c0.5-0.1,1.1-0.3,1.7-0.6v1.8c-0.5,0.3-1.1,0.4-1.6,0.5C330.5,449.7,329.9,449.8,329.2,449.8z M328.8,440.8c-0.7,0-1.2,0.2-1.7,0.7
		c-0.4,0.4-0.7,1.1-0.7,1.9h4.7c0-0.8-0.2-1.5-0.6-1.9C330,441,329.5,440.8,328.8,440.8z"/>
	<path class="st0" d="M342.1,449.6l-0.4-1.4h-0.1c-0.5,0.6-1,1-1.5,1.3s-1.1,0.3-1.9,0.3c-1,0-1.8-0.3-2.4-0.8
		c-0.6-0.5-0.8-1.3-0.8-2.3c0-1.1,0.4-1.9,1.2-2.4c0.8-0.5,2-0.8,3.6-0.9l1.8-0.1v-0.5c0-0.7-0.2-1.1-0.5-1.5
		c-0.3-0.3-0.8-0.5-1.4-0.5c-0.5,0-1,0.1-1.5,0.2c-0.5,0.2-0.9,0.3-1.4,0.5l-0.7-1.6c0.6-0.3,1.2-0.5,1.8-0.7s1.3-0.2,1.9-0.2
		c1.3,0,2.3,0.3,3,0.9c0.7,0.6,1,1.5,1,2.7v6.9H342.1z M338.8,448.1c0.8,0,1.4-0.2,1.9-0.7s0.7-1.1,0.7-1.9v-0.9l-1.3,0.1
		c-1,0-1.8,0.2-2.2,0.5c-0.5,0.3-0.7,0.8-0.7,1.4c0,0.5,0.1,0.8,0.4,1.1C337.9,448,338.3,448.1,338.8,448.1z"/>
	<path class="st0" d="M351.9,439.2c0.4,0,0.8,0,1.1,0.1l-0.2,2c-0.3-0.1-0.6-0.1-1-0.1c-0.9,0-1.6,0.3-2.1,0.9
		c-0.5,0.6-0.8,1.3-0.8,2.2v5.4h-2.2v-10.3h1.7l0.3,1.8h0.1c0.3-0.6,0.8-1.1,1.3-1.5C350.7,439.3,351.2,439.2,351.9,439.2z"/>
	<path class="st0" d="M361.8,446.7c0,1-0.4,1.8-1.1,2.3c-0.7,0.5-1.8,0.8-3.1,0.8c-1.4,0-2.5-0.2-3.3-0.6v-1.9
		c1.2,0.6,2.3,0.8,3.4,0.8c1.3,0,2-0.4,2-1.2c0-0.3-0.1-0.5-0.2-0.7c-0.1-0.2-0.4-0.4-0.7-0.5c-0.3-0.2-0.8-0.4-1.4-0.6
		c-1.2-0.5-2-0.9-2.4-1.4c-0.4-0.5-0.6-1.1-0.6-1.8c0-0.9,0.4-1.6,1.1-2c0.7-0.5,1.7-0.7,2.9-0.7c1.2,0,2.3,0.2,3.4,0.7l-0.7,1.6
		c-1.1-0.5-2-0.7-2.8-0.7c-1.2,0-1.7,0.3-1.7,1c0,0.3,0.1,0.6,0.5,0.8c0.3,0.2,1,0.5,2,0.9c0.8,0.3,1.5,0.6,1.8,0.9
		c0.4,0.3,0.7,0.6,0.9,0.9C361.7,445.8,361.8,446.2,361.8,446.7z"/>
	<path class="st0" d="M381.3,442.8c0,2.2-0.6,3.9-1.7,5.1c-1.1,1.2-2.7,1.8-4.7,1.8c-2,0-3.6-0.6-4.7-1.8c-1.1-1.2-1.6-2.9-1.6-5.2
		c0-2.2,0.6-4,1.7-5.2c1.1-1.2,2.7-1.8,4.7-1.8c2,0,3.6,0.6,4.7,1.8C380.8,438.9,381.3,440.6,381.3,442.8z M371,442.8
		c0,1.7,0.3,2.9,1,3.8c0.7,0.9,1.7,1.3,3,1.3c1.3,0,2.3-0.4,3-1.3c0.7-0.9,1-2.1,1-3.8c0-1.7-0.3-2.9-1-3.8c-0.7-0.9-1.7-1.3-3-1.3
		c-1.3,0-2.3,0.4-3,1.3C371.3,439.9,371,441.1,371,442.8z"/>
	<path class="st0" d="M389.1,441h-2.5v8.6h-2.2V441h-1.7v-1l1.7-0.7v-0.7c0-1.2,0.3-2.1,0.9-2.7c0.6-0.6,1.4-0.9,2.6-0.9
		c0.8,0,1.5,0.1,2.3,0.4l-0.6,1.7c-0.5-0.2-1.1-0.3-1.5-0.3c-0.5,0-0.9,0.2-1.1,0.5c-0.2,0.3-0.3,0.8-0.3,1.4v0.7h2.5V441z"/>
	<path class="st0" d="M400.7,449.6h-2.2v-11.7h-4V436h10.2v1.9h-4V449.6z"/>
	<path class="st0" d="M411.1,449.8c-1.6,0-2.8-0.5-3.7-1.4c-0.9-0.9-1.3-2.2-1.3-3.8c0-1.7,0.4-3,1.3-4c0.8-1,2-1.4,3.4-1.4
		c1.4,0,2.4,0.4,3.2,1.2c0.8,0.8,1.2,2,1.2,3.4v1.2h-6.8c0,1,0.3,1.8,0.8,2.3c0.5,0.5,1.2,0.8,2.1,0.8c0.6,0,1.2-0.1,1.7-0.2
		c0.5-0.1,1.1-0.3,1.7-0.6v1.8c-0.5,0.3-1.1,0.4-1.6,0.5C412.4,449.7,411.8,449.8,411.1,449.8z M410.7,440.8c-0.7,0-1.2,0.2-1.7,0.7
		c-0.4,0.4-0.7,1.1-0.7,1.9h4.7c0-0.8-0.2-1.5-0.6-1.9C411.9,441,411.4,440.8,410.7,440.8z"/>
	<path class="st0" d="M421.7,449.8c-1.6,0-2.7-0.5-3.5-1.4c-0.8-0.9-1.2-2.2-1.2-3.9c0-1.7,0.4-3.1,1.3-4c0.8-0.9,2.1-1.4,3.7-1.4
		c1.1,0,2.1,0.2,2.9,0.6l-0.7,1.8c-0.9-0.4-1.7-0.5-2.3-0.5c-1.8,0-2.7,1.2-2.7,3.5c0,1.2,0.2,2,0.7,2.6s1.1,0.9,1.9,0.9
		c1,0,1.9-0.2,2.8-0.7v1.9c-0.4,0.2-0.8,0.4-1.2,0.5S422.3,449.8,421.7,449.8z"/>
	<path class="st0" d="M436,449.6h-2.2v-6.3c0-0.8-0.2-1.4-0.5-1.8c-0.3-0.4-0.8-0.6-1.5-0.6c-0.9,0-1.6,0.3-2,0.8
		c-0.4,0.5-0.6,1.5-0.6,2.8v5.1h-2.2v-14.4h2.2v3.7c0,0.6,0,1.2-0.1,1.9h0.1c0.3-0.5,0.7-0.9,1.2-1.2c0.5-0.3,1.1-0.4,1.9-0.4
		c2.5,0,3.7,1.3,3.7,3.8V449.6z"/>
	<path class="st0" d="M448,449.6h-2.2v-6.3c0-0.8-0.2-1.4-0.5-1.8c-0.3-0.4-0.8-0.6-1.5-0.6c-0.9,0-1.6,0.3-2,0.8s-0.6,1.5-0.6,2.7
		v5.1H439v-10.3h1.7l0.3,1.3h0.1c0.3-0.5,0.7-0.9,1.3-1.1c0.6-0.3,1.2-0.4,1.9-0.4c2.5,0,3.7,1.3,3.7,3.8V449.6z"/>
	<path class="st0" d="M460.2,444.5c0,1.7-0.4,3-1.3,3.9s-2.1,1.4-3.6,1.4c-1,0-1.8-0.2-2.5-0.6c-0.7-0.4-1.3-1.1-1.7-1.9
		c-0.4-0.8-0.6-1.8-0.6-2.8c0-1.7,0.4-3,1.3-3.9c0.9-0.9,2.1-1.4,3.6-1.4c1.5,0,2.7,0.5,3.5,1.4
		C459.7,441.5,460.2,442.8,460.2,444.5z M452.7,444.5c0,2.4,0.9,3.6,2.6,3.6c1.7,0,2.6-1.2,2.6-3.6c0-2.3-0.9-3.5-2.6-3.5
		c-0.9,0-1.6,0.3-2,0.9C452.9,442.5,452.7,443.3,452.7,444.5z"/>
	<path class="st0" d="M464.8,449.6h-2.2v-14.4h2.2V449.6z"/>
	<path class="st0" d="M477.1,444.5c0,1.7-0.4,3-1.3,3.9s-2.1,1.4-3.6,1.4c-1,0-1.8-0.2-2.5-0.6c-0.7-0.4-1.3-1.1-1.7-1.9
		c-0.4-0.8-0.6-1.8-0.6-2.8c0-1.7,0.4-3,1.3-3.9c0.9-0.9,2.1-1.4,3.6-1.4c1.5,0,2.7,0.5,3.5,1.4
		C476.6,441.5,477.1,442.8,477.1,444.5z M469.6,444.5c0,2.4,0.9,3.6,2.6,3.6c1.7,0,2.6-1.2,2.6-3.6c0-2.3-0.9-3.5-2.6-3.5
		c-0.9,0-1.6,0.3-2,0.9C469.8,442.5,469.6,443.3,469.6,444.5z"/>
	<path class="st0" d="M488.2,439.3v1.2l-1.8,0.3c0.2,0.2,0.3,0.5,0.4,0.8s0.2,0.6,0.2,1c0,1.1-0.4,1.9-1.1,2.5
		c-0.7,0.6-1.7,0.9-3,0.9c-0.3,0-0.6,0-0.9-0.1c-0.5,0.3-0.7,0.6-0.7,1c0,0.2,0.1,0.4,0.3,0.5s0.6,0.2,1.2,0.2h1.8
		c1.1,0,2,0.2,2.6,0.7c0.6,0.5,0.9,1.2,0.9,2.1c0,1.2-0.5,2.1-1.4,2.7c-1,0.6-2.3,0.9-4.2,0.9c-1.4,0-2.5-0.2-3.2-0.7
		s-1.1-1.2-1.1-2.1c0-0.6,0.2-1.2,0.6-1.6c0.4-0.4,1-0.7,1.7-0.9c-0.3-0.1-0.5-0.3-0.7-0.6c-0.2-0.3-0.3-0.6-0.3-0.9
		c0-0.4,0.1-0.7,0.3-1c0.2-0.3,0.5-0.5,1-0.8c-0.5-0.2-1-0.6-1.3-1.1c-0.3-0.5-0.5-1.1-0.5-1.8c0-1.1,0.4-2,1.1-2.6
		c0.7-0.6,1.7-0.9,3-0.9c0.3,0,0.6,0,0.9,0.1s0.6,0.1,0.7,0.1H488.2z M480.2,451.2c0,0.5,0.2,0.8,0.6,1.1c0.4,0.3,1,0.4,1.8,0.4
		c1.2,0,2.1-0.2,2.7-0.5c0.6-0.3,0.9-0.8,0.9-1.4c0-0.4-0.2-0.8-0.5-1c-0.3-0.2-0.9-0.3-1.8-0.3h-1.7c-0.6,0-1.1,0.1-1.5,0.4
		C480.4,450.3,480.2,450.7,480.2,451.2z M481.1,442.7c0,0.6,0.2,1.1,0.5,1.5s0.8,0.5,1.4,0.5c1.3,0,1.9-0.7,1.9-2
		c0-0.7-0.2-1.2-0.5-1.5c-0.3-0.4-0.8-0.5-1.4-0.5c-0.6,0-1.1,0.2-1.4,0.5C481.3,441.5,481.1,442,481.1,442.7z"/>
	<path class="st0" d="M488.6,439.3h2.4l2.1,5.8c0.3,0.8,0.5,1.6,0.6,2.3h0.1c0.1-0.3,0.2-0.8,0.3-1.2c0.1-0.5,0.9-2.8,2.4-6.9h2.4
		l-4.4,11.6c-0.8,2.1-2.1,3.2-4,3.2c-0.5,0-1-0.1-1.4-0.2v-1.7c0.3,0.1,0.7,0.1,1.1,0.1c1.1,0,1.8-0.6,2.2-1.8l0.4-1L488.6,439.3z"
		/>
	<path class="st0" d="M510.2,449.6H508v-11.7h-4V436h10.2v1.9h-4V449.6z"/>
	<path class="st0" d="M521.2,439.2c0.4,0,0.8,0,1.1,0.1l-0.2,2c-0.3-0.1-0.6-0.1-1-0.1c-0.9,0-1.6,0.3-2.1,0.9
		c-0.5,0.6-0.8,1.3-0.8,2.2v5.4H516v-10.3h1.7l0.3,1.8h0.1c0.3-0.6,0.8-1.1,1.3-1.5C520,439.3,520.6,439.2,521.2,439.2z"/>
	<path class="st0" d="M530.6,449.6l-0.4-1.4h-0.1c-0.5,0.6-1,1-1.5,1.3s-1.1,0.3-1.9,0.3c-1,0-1.8-0.3-2.4-0.8
		c-0.6-0.5-0.8-1.3-0.8-2.3c0-1.1,0.4-1.9,1.2-2.4c0.8-0.5,2-0.8,3.6-0.9l1.8-0.1v-0.5c0-0.7-0.2-1.1-0.5-1.5
		c-0.3-0.3-0.8-0.5-1.4-0.5c-0.5,0-1,0.1-1.5,0.2c-0.5,0.2-0.9,0.3-1.4,0.5l-0.7-1.6c0.6-0.3,1.2-0.5,1.8-0.7s1.3-0.2,1.9-0.2
		c1.3,0,2.3,0.3,3,0.9c0.7,0.6,1,1.5,1,2.7v6.9H530.6z M527.4,448.1c0.8,0,1.4-0.2,1.9-0.7s0.7-1.1,0.7-1.9v-0.9l-1.3,0.1
		c-1,0-1.8,0.2-2.2,0.5c-0.5,0.3-0.7,0.8-0.7,1.4c0,0.5,0.1,0.8,0.4,1.1C526.4,448,526.8,448.1,527.4,448.1z"/>
	<path class="st0" d="M535.1,436.6c0-0.4,0.1-0.7,0.3-0.9c0.2-0.2,0.5-0.3,0.9-0.3c0.4,0,0.7,0.1,0.9,0.3c0.2,0.2,0.3,0.5,0.3,0.9
		c0,0.4-0.1,0.7-0.3,0.9c-0.2,0.2-0.5,0.3-0.9,0.3c-0.4,0-0.7-0.1-0.9-0.3C535.2,437.3,535.1,437,535.1,436.6z M537.4,449.6h-2.2
		v-10.3h2.2V449.6z"/>
	<path class="st0" d="M549.5,449.6h-2.2v-6.3c0-0.8-0.2-1.4-0.5-1.8c-0.3-0.4-0.8-0.6-1.5-0.6c-0.9,0-1.6,0.3-2,0.8
		s-0.6,1.5-0.6,2.7v5.1h-2.2v-10.3h1.7l0.3,1.3h0.1c0.3-0.5,0.7-0.9,1.3-1.1c0.6-0.3,1.2-0.4,1.9-0.4c2.5,0,3.7,1.3,3.7,3.8V449.6z"
		/>
	<path class="st0" d="M552.4,436.6c0-0.4,0.1-0.7,0.3-0.9c0.2-0.2,0.5-0.3,0.9-0.3c0.4,0,0.7,0.1,0.9,0.3c0.2,0.2,0.3,0.5,0.3,0.9
		c0,0.4-0.1,0.7-0.3,0.9c-0.2,0.2-0.5,0.3-0.9,0.3c-0.4,0-0.7-0.1-0.9-0.3C552.6,437.3,552.4,437,552.4,436.6z M554.8,449.6h-2.2
		v-10.3h2.2V449.6z"/>
	<path class="st0" d="M566.9,449.6h-2.2v-6.3c0-0.8-0.2-1.4-0.5-1.8c-0.3-0.4-0.8-0.6-1.5-0.6c-0.9,0-1.6,0.3-2,0.8
		s-0.6,1.5-0.6,2.7v5.1h-2.2v-10.3h1.7l0.3,1.3h0.1c0.3-0.5,0.7-0.9,1.3-1.1c0.6-0.3,1.2-0.4,1.9-0.4c2.5,0,3.7,1.3,3.7,3.8V449.6z"
		/>
	<path class="st0" d="M578.6,439.3v1.2l-1.8,0.3c0.2,0.2,0.3,0.5,0.4,0.8s0.2,0.6,0.2,1c0,1.1-0.4,1.9-1.1,2.5
		c-0.7,0.6-1.7,0.9-3,0.9c-0.3,0-0.6,0-0.9-0.1c-0.5,0.3-0.7,0.6-0.7,1c0,0.2,0.1,0.4,0.3,0.5s0.6,0.2,1.2,0.2h1.8
		c1.1,0,2,0.2,2.6,0.7c0.6,0.5,0.9,1.2,0.9,2.1c0,1.2-0.5,2.1-1.4,2.7c-1,0.6-2.3,0.9-4.2,0.9c-1.4,0-2.5-0.2-3.2-0.7
		s-1.1-1.2-1.1-2.1c0-0.6,0.2-1.2,0.6-1.6c0.4-0.4,1-0.7,1.7-0.9c-0.3-0.1-0.5-0.3-0.7-0.6c-0.2-0.3-0.3-0.6-0.3-0.9
		c0-0.4,0.1-0.7,0.3-1c0.2-0.3,0.5-0.5,1-0.8c-0.5-0.2-1-0.6-1.3-1.1c-0.3-0.5-0.5-1.1-0.5-1.8c0-1.1,0.4-2,1.1-2.6
		c0.7-0.6,1.7-0.9,3-0.9c0.3,0,0.6,0,0.9,0.1s0.6,0.1,0.7,0.1H578.6z M570.5,451.2c0,0.5,0.2,0.8,0.6,1.1c0.4,0.3,1,0.4,1.8,0.4
		c1.2,0,2.1-0.2,2.7-0.5c0.6-0.3,0.9-0.8,0.9-1.4c0-0.4-0.2-0.8-0.5-1c-0.3-0.2-0.9-0.3-1.8-0.3h-1.7c-0.6,0-1.1,0.1-1.5,0.4
		C570.7,450.3,570.5,450.7,570.5,451.2z M571.5,442.7c0,0.6,0.2,1.1,0.5,1.5s0.8,0.5,1.4,0.5c1.3,0,1.9-0.7,1.9-2
		c0-0.7-0.2-1.2-0.5-1.5c-0.3-0.4-0.8-0.5-1.4-0.5c-0.6,0-1.1,0.2-1.4,0.5C571.6,441.5,571.5,442,571.5,442.7z"/>
</g>
</svg>
