<svg xmlns="http://www.w3.org/2000/svg" width="1217.782" height="228.977" viewBox="0 0 1217.782 228.977">
  <g id="g10" transform="translate(0 228.977)">
    <g id="g12">
      <path id="path104" d="M614.917-94.366a28.3,28.3,0,0,1,3.168-13.825,11.54,11.54,0,0,1,10.333-6.327,10.533,10.533,0,0,1,9.4,5.049q3.208,5.066,3.205,15.1H614.917" fill="#f2f6f7"/>
      <path id="path106" d="M632.248-48.828a54.192,54.192,0,0,0,13.7-1.765L625.673,0,501.624-49.992h1.947v-45.86a19.792,19.792,0,0,1,3.159-11.165,10.914,10.914,0,0,1,9.169-4.867c3.369,0,5.821,1.174,7.4,3.531,1.555,2.357,2.337,5.878,2.319,10.592v47.769h18.159v-45.86a19.638,19.638,0,0,1,3.14-11.165,10.894,10.894,0,0,1,9.179-4.867c3.379,0,5.821,1.174,7.377,3.531s2.337,5.878,2.328,10.592v47.769h18.168V-96.749q.172-13.928-4.695-21.929t-17.015-8.186c-5.485.181-9.809,1.527-12.939,4.055a32.542,32.542,0,0,0-7.3,8.006,24.755,24.755,0,0,0-5.581-7.567q-4.122-4.122-13.475-4.494-7.772.3-12.405,4.351a31.219,31.219,0,0,0-6.984,8.731c0-1.984-.087-3.969-.229-5.945-.124-1.994-.248-3.951-.335-5.935H486.8l41.413-103.314,162.945,65.689-15.1,37.625h12.328c.085,1.9.2,3.836.363,5.773.133,1.976.211,3.9.219,5.811,1.147-1.584,2.368-3.378,3.951-5.344a21.1,21.1,0,0,1,6.356-5.133,21.8,21.8,0,0,1,10.105-2.309q12.624.342,17.568,8.32,4.908,7.988,4.7,19.734v48.819H713.49V-95.432c.029-5.755-.763-9.953-2.395-12.569-1.66-2.633-4.332-3.912-8.024-3.883-4.716.143-8.055,1.88-10.04,5.258A23.96,23.96,0,0,0,690.159-94.1v44.105H671.981l-.017-65.45L652.554-67.064a31.477,31.477,0,0,1-5.592,2.883c-3.063,1.24-7.348,1.9-12.816,2q-10.462-.088-14.9-5.527t-4.324-15.228h43.705v-3.531q-.1-15.316-4.219-24.171-4.108-8.874-10.907-12.6a30.037,30.037,0,0,0-15.077-3.635,27.365,27.365,0,0,0-16.613,5.391A33.631,33.631,0,0,0,601.121-107.2a53.524,53.524,0,0,0-3.779,20.458,47.131,47.131,0,0,0,3.635,18.914,30.767,30.767,0,0,0,11.376,13.712q7.742,5.182,19.895,5.286" fill="#f2f6f7"/>
      <path id="path108" d="M1168.688-52.5l.888-15.105c1.536.7,3.988,1.7,7.347,2.929a37.466,37.466,0,0,0,11.556,2.071,18.2,18.2,0,0,0,8.329-1.556q3.294-1.646,3.4-5.964a6.8,6.8,0,0,0-1.545-4.437c-1.107-1.527-3.292-3.226-6.517-5.115l-7.481-4.409a48.46,48.46,0,0,1-10.831-7.881q-4.866-4.736-5.143-13.435.144-8.188,7.052-14.647c4.617-4.275,10.963-6.565,19.047-6.813a63.466,63.466,0,0,1,12.433,1.326c3.357.8,5.524,1.4,6.468,1.756l-1.009,14.112a57.283,57.283,0,0,0-7.215-2.347,36.8,36.8,0,0,0-8.771-1.049c-3.635.037-6.307.687-7.957,1.975a6.321,6.321,0,0,0-2.461,5.371,7.016,7.016,0,0,0,2.28,5.163,37.863,37.863,0,0,0,6.232,4.551l8.951,5.754a44.218,44.218,0,0,1,10.553,8.484,16.055,16.055,0,0,1,3.492,10.62c-.133,7.043-2.787,12.51-7.891,16.4-5.135,3.894-11.891,5.849-20.249,5.916a63.653,63.653,0,0,1-12.567-1.288,54.082,54.082,0,0,1-8.388-2.385" fill="#f2f6f7"/>
      <path id="path110" d="M81.08-50v-85.537L55.116-50H41.776L17.281-135.533,16.985-50H0V-152.566H27.969L49.114-76.019l21.833-76.548H98.085V-50h-17" fill="#f2f6f7"/>
      <path id="path112" d="M172.93-55.741c-.22-2.339-.324-4.887-.344-7.633V-96.429a47.83,47.83,0,0,0-2.281-16.318,18.941,18.941,0,0,0-8.7-10.429q-6.284-3.651-17.912-3.684a52.568,52.568,0,0,0-14.37,1.918,62.825,62.825,0,0,0-9.533,3.674l1.021,14.685a32.967,32.967,0,0,1,8.254-4.781,33.153,33.153,0,0,1,12.443-2.567c5.133.124,8.788,1.594,10.935,4.39a15.452,15.452,0,0,1,3.14,10.029v2.777h-3.655q-17.592-.316-28.522,5.153Q112.5-86.115,112.174-71.009c.2,7.1,2.51,12.578,6.9,16.393a23.381,23.381,0,0,0,15.688,5.793c5.333-.105,9.647-1.232,12.911-3.4a36.584,36.584,0,0,0,8.5-8.054c-.019,1.842.057,3.626.183,5.4A23.88,23.88,0,0,0,157.194-50h16.393c-.2-1.5-.448-3.427-.657-5.744M155.582-82.756c.076,6.795-1.04,12.109-3.34,15.87-2.28,3.769-6.107,5.668-11.48,5.734a11.591,11.591,0,0,1-8.435-3.225,11.564,11.564,0,0,1-3.149-8.4q.071-8.13,6.555-11.27c4.323-2.07,10.4-3.1,18.235-3h1.613v4.284" fill="#f2f6f7"/>
      <path id="path114" d="M188.722-50v-63.2c.02-2.367-.029-4.609-.105-6.737-.095-2.128-.237-4.046-.457-5.726h16.976c.095,1.89.2,3.836.352,5.764.144,1.985.229,3.912.249,5.82,1.144-1.593,2.347-3.378,3.951-5.343a20.81,20.81,0,0,1,6.336-5.134,21.743,21.743,0,0,1,10.105-2.309q12.652.344,17.576,8.311c3.273,5.325,4.839,11.89,4.695,19.744V-50H230.241V-95.426c.037-5.765-.773-9.953-2.405-12.568-1.641-2.643-4.312-3.913-8.005-3.884-4.7.134-8.063,1.871-10.039,5.248A23.88,23.88,0,0,0,206.9-94.1V-50H188.722" fill="#f2f6f7"/>
      <path id="path116" d="M268.757-106.587l-1.04-14.685a62.976,62.976,0,0,1,9.532-3.674,52.875,52.875,0,0,1,14.389-1.918q11.594.028,17.9,3.692a18.887,18.887,0,0,1,8.7,10.43,46.9,46.9,0,0,1,2.26,16.308V-63.38c.029,2.749.133,5.3.353,7.633.22,2.32.44,4.247.688,5.755h-16.4a24.622,24.622,0,0,1-.859-4.885c-.144-1.767-.191-3.549-.191-5.392a36.336,36.336,0,0,1-8.492,8.044c-3.255,2.167-7.587,3.3-12.911,3.4a23.431,23.431,0,0,1-15.7-5.792c-4.371-3.807-6.671-9.285-6.881-16.394q.316-15.087,11.223-20.573,10.908-5.455,28.512-5.144h3.675v-2.777a15.568,15.568,0,0,0-3.14-10.029c-2.147-2.8-5.821-4.266-10.945-4.389a33.1,33.1,0,0,0-12.452,2.557,32.812,32.812,0,0,0-8.225,4.781M303.519-82.76v-4.284H301.9c-7.835-.1-13.913.925-18.235,3.006s-6.489,5.848-6.565,11.26a11.7,11.7,0,0,0,3.148,8.407,11.671,11.671,0,0,0,8.464,3.216q8.03-.1,11.471-5.725c2.289-3.769,3.4-9.076,3.34-15.879" fill="#f2f6f7"/>
      <path id="path118" d="M381.544-125.661c-.095,1.956-.209,3.922-.363,5.859s-.209,3.893-.228,5.878h-.583a29.219,29.219,0,0,0-7.281-8.951q-4.552-3.778-12.681-3.989c-6.575.124-11.852,1.956-15.859,5.554a30.645,30.645,0,0,0-8.732,14.237,65.124,65.124,0,0,0-2.672,19.447c.133,10.087,1.632,17.883,4.5,23.34Q341.93-56.069,348-52.968A23.77,23.77,0,0,0,359.54-50q8.774-.258,13.321-4.169a29.994,29.994,0,0,0,6.917-8.608v7.195a40.706,40.706,0,0,1-1.355,11.461,16.488,16.488,0,0,1-5.812,8.845c-2.863,2.281-7.127,3.435-12.785,3.52A41.314,41.314,0,0,1,346.7-34.1a59.379,59.379,0,0,1-9.151-4.121l-1.021,16.155a76.131,76.131,0,0,0,10.105,2.958,74.694,74.694,0,0,0,15.831,1.736q13.74-.073,21.384-5.268A26.862,26.862,0,0,0,394.475-36.9a64.008,64.008,0,0,0,2.872-21.04V-113.78c.037-1.966.085-3.951.191-5.935s.267-3.97.411-5.945Zm-5.467,56.022q-3.794,6.314-12.272,6.269c-3.2.077-5.964-1.927-8.283-5.954-2.3-4.065-3.521-10.5-3.616-19.324q-.072-11.65,3.033-17.938a10.855,10.855,0,0,1,10.172-6.48q6.584-.042,10.583,6.117c2.653,4.151,4.037,10.181,4.084,18.158q.086,12.868-3.7,19.151" fill="#f2f6f7"/>
      <path id="path120" d="M485.423-113.35c-.019-2.719-.076-5.086-.181-7.147l-.076-1.135-12.759,31.8q-.486-12.939-4.132-20.811c-2.748-5.916-6.364-10.115-10.916-12.6a30.057,30.057,0,0,0-15.077-3.626,27.348,27.348,0,0,0-16.593,5.382A33.729,33.729,0,0,0,414.982-107.2,53.965,53.965,0,0,0,411.2-86.736a47.163,47.163,0,0,0,3.645,18.913,30.75,30.75,0,0,0,11.375,13.712q7.742,5.169,19.876,5.287a54.041,54.041,0,0,0,13.932-1.824,62.521,62.521,0,0,0,8.655-3.024l-.611-9.867,17.348,6.985ZM431.948-108.2a11.6,11.6,0,0,1,10.333-6.326,10.535,10.535,0,0,1,9.4,5.047q3.206,5.082,3.225,15.1H428.78a28.235,28.235,0,0,1,3.168-13.826m30.783,42.511.764.3c-.811.409-1.708.82-2.672,1.2-3.063,1.251-7.328,1.909-12.805,2-6.976-.057-11.928-1.89-14.9-5.516s-4.408-8.7-4.341-15.228h40.879l-6.928,17.243" fill="#f2f6f7"/>
      <path id="path122" d="M754.076-125.658V-141.25l18.149-5.592v21.184h15.115v13.339H772.225v39.258c.02,3.968.744,6.727,2.128,8.244a7.642,7.642,0,0,0,6.088,2.215,17.048,17.048,0,0,0,4.18-.545,12.083,12.083,0,0,0,2.719-1.088v12.921a25.914,25.914,0,0,1-5.095,1.745,33.114,33.114,0,0,1-7.072.745c-6.784.085-11.976-1.623-15.62-5.078q-5.426-5.166-5.477-16.946v-41.471H742.042v-13.339h12.033" fill="#f2f6f7"/>
      <path id="path124" d="M837.483-50V-152.566h53.791v14.981H856.235v27.358h33.129v14.953H856.235v30.3h36.509V-50H837.483" fill="#f2f6f7"/>
      <path id="path126" d="M919.32-50,896.3-125.657h18.769l15.392,58.322,15.831-58.322h17.6L940.724-50h-21.4" fill="#f2f6f7"/>
      <path id="path128" d="M1032.136-86.457q-.086-15.316-4.2-24.18t-10.927-12.6a29.933,29.933,0,0,0-15.077-3.625,27.31,27.31,0,0,0-16.583,5.381A33.377,33.377,0,0,0,974.664-107.2a53.37,53.37,0,0,0-3.808,20.467,47.2,47.2,0,0,0,3.655,18.914,30.636,30.636,0,0,0,11.375,13.713q7.744,5.166,19.857,5.276a53.711,53.711,0,0,0,13.951-1.814,60.274,60.274,0,0,0,8.645-3.035l-.869-14.38a26.9,26.9,0,0,1-6.993,3.874q-4.566,1.86-12.815,2-10.45-.086-14.887-5.516-4.464-5.452-4.323-15.239h43.684Zm-43.684-7.911a28.248,28.248,0,0,1,3.168-13.826,11.51,11.51,0,0,1,10.315-6.326,10.491,10.491,0,0,1,9.4,5.047q3.22,5.067,3.235,15.105H988.452" fill="#f2f6f7"/>
      <path id="path130" d="M1045.52-50v-63.2c0-2.367-.049-4.609-.135-6.737s-.239-4.046-.459-5.726h17c.087,1.89.192,3.836.355,5.764.124,1.985.219,3.912.219,5.82,1.155-1.593,2.376-3.378,3.951-5.343a20.844,20.844,0,0,1,6.364-5.134,21.653,21.653,0,0,1,10.1-2.309q12.626.344,17.568,8.311c3.281,5.325,4.857,11.89,4.7,19.744V-50h-18.16V-95.426q.044-8.647-2.423-12.568c-1.632-2.643-4.295-3.913-8.016-3.884-4.695.134-8.035,1.871-10.019,5.248a23.7,23.7,0,0,0-2.881,12.53V-50H1045.52" fill="#f2f6f7"/>
      <path id="path132" d="M1127.585-125.658V-141.25l18.169-5.592v21.184h15.115v13.339h-15.115v39.258c.029,3.968.725,6.727,2.128,8.244a7.644,7.644,0,0,0,6.088,2.215,16.69,16.69,0,0,0,4.169-.545,12.329,12.329,0,0,0,2.729-1.088v12.921a26.35,26.35,0,0,1-5.095,1.745,33.161,33.161,0,0,1-7.089.745c-6.757.085-11.967-1.623-15.593-5.078s-5.477-9.1-5.507-16.946v-41.471h-12.012v-13.339h12.012" fill="#f2f6f7"/>
    </g>
  </g>
</svg>
