<svg width="183" height="34" viewBox="0 0 183 34" fill="none" xmlns="http://www.w3.org/2000/svg">
<path d="M23.3935 21.7239C23.3935 22.7495 23.241 23.5576 22.9055 24.117C22.57 24.6764 21.9905 24.9872 21.167 24.9872C20.618 24.9872 20.2215 24.8318 19.886 24.4899C19.581 24.1792 19.4285 23.7441 19.398 23.2157C19.398 22.4077 19.7335 21.8172 20.374 21.5064C21.0145 21.1956 21.9295 21.0402 23.119 21.0713H23.363V21.7239H23.3935ZM25.9555 24.6453V19.6728C25.9555 18.7093 25.864 17.9013 25.62 17.2176C25.376 16.5338 24.949 16.0055 24.3085 15.6325C23.668 15.2596 22.7835 15.0731 21.6245 15.0731C20.7705 15.0731 20.0385 15.1664 19.459 15.3528C18.8795 15.5393 18.3915 15.7258 18.0255 15.9123L18.178 18.1188C18.4525 17.8702 18.8795 17.6527 19.4285 17.404C19.9775 17.1554 20.618 17.0311 21.289 17.0311C22.0515 17.0622 22.6005 17.2797 22.936 17.6837C23.2715 18.1188 23.424 18.6161 23.3935 19.2066V19.6417H22.8445C21.0755 19.6106 19.642 19.8592 18.5745 20.4187C17.4765 20.9781 16.9275 22.0037 16.897 23.5265C16.9275 24.6143 17.263 25.4223 17.934 26.0128C18.605 26.6033 19.3675 26.883 20.2825 26.883C21.0755 26.883 21.7465 26.6965 22.2345 26.3547C22.7225 26.0128 23.1495 25.6088 23.4545 25.1426H23.485C23.485 25.4223 23.485 25.702 23.5155 25.9506C23.546 26.1993 23.5765 26.4479 23.6375 26.6965H26.108C26.0775 26.479 26.047 26.1682 26.0165 25.8263C25.9555 25.4534 25.9555 25.0804 25.9555 24.6453ZM33.977 15.0731C33.367 15.0731 32.8485 15.1974 32.452 15.415C32.0555 15.6325 31.72 15.8812 31.5065 16.192C31.2625 16.4717 31.0795 16.7514 30.9575 17H30.927C30.927 16.7203 30.927 16.4095 30.8965 16.1298C30.866 15.8501 30.866 15.5393 30.8355 15.2596H28.2735C28.304 15.5082 28.3345 15.819 28.3345 16.1298C28.3345 16.4406 28.365 16.7825 28.365 17.1554V26.6965H31.0795V20.0457C31.0795 19.2998 31.232 18.6782 31.5065 18.1499C31.8115 17.6527 32.2995 17.3729 33.001 17.3729C33.55 17.3729 33.9465 17.5594 34.1905 17.9634C34.4345 18.3675 34.5565 18.989 34.5565 19.8592V26.7276H37.271V19.362C37.3015 18.181 37.0575 17.1865 36.5695 16.3784C36.1425 15.5393 35.258 15.1042 33.977 15.0731ZM45.628 21.7239C45.628 22.7495 45.4755 23.5576 45.14 24.117C44.8045 24.6764 44.225 24.9872 43.4015 24.9872C42.8525 24.9872 42.456 24.8318 42.1205 24.4899C41.8155 24.1792 41.663 23.7441 41.6325 23.2157C41.6325 22.4077 41.968 21.8172 42.6085 21.5064C43.249 21.1956 44.164 21.0402 45.3535 21.0713H45.5975V21.7239H45.628ZM48.1595 24.6453V19.6728C48.1595 18.7093 48.068 17.9013 47.824 17.2176C47.58 16.5338 47.153 16.0055 46.5125 15.6325C45.872 15.2596 44.9875 15.0731 43.8285 15.0731C42.9745 15.0731 42.2425 15.1664 41.663 15.3528C41.0835 15.5393 40.5955 15.7258 40.2295 15.9123L40.382 18.1188C40.6565 17.8702 41.0835 17.6527 41.6325 17.404C42.1815 17.1554 42.7915 17.0311 43.493 17.0311C44.2555 17.0622 44.8045 17.2797 45.14 17.6837C45.4755 18.1188 45.628 18.6161 45.5975 19.2066V19.6417H45.0485C43.2795 19.6106 41.846 19.8592 40.748 20.4187C39.65 20.9781 39.101 22.0037 39.0705 23.5265C39.101 24.6143 39.4365 25.4223 40.1075 26.0128C40.7785 26.6033 41.541 26.883 42.456 26.883C43.249 26.883 43.92 26.6965 44.408 26.3547C44.896 26.0128 45.323 25.6088 45.628 25.1426H45.6585C45.6585 25.4223 45.6585 25.702 45.689 25.9506C45.7195 26.1993 45.75 26.4479 45.811 26.6965H48.2815C48.251 26.479 48.2205 26.1682 48.19 25.8263C48.19 25.4534 48.1595 25.0804 48.1595 24.6453ZM56.5165 23.713C56.1505 24.3346 55.51 24.6764 54.6865 24.6453C54.1985 24.6453 53.802 24.3656 53.436 23.7441C53.1005 23.1225 52.9175 22.1591 52.887 20.8227C52.887 19.6417 53.0395 18.7404 53.3445 18.1188C53.6495 17.4973 54.168 17.1554 54.8695 17.1554C55.5405 17.1554 56.059 17.4662 56.4555 18.0878C56.852 18.7093 57.0655 19.6106 57.0655 20.8227C57.096 22.128 56.913 23.0914 56.5165 23.713ZM57.279 16.1298C57.2485 16.4095 57.2485 16.7203 57.2485 17.0311H57.157C56.8825 16.5027 56.5165 16.0676 56.059 15.6947C55.6015 15.3218 54.961 15.1042 54.168 15.1042C53.192 15.1042 52.399 15.3839 51.789 15.9433C51.179 16.4717 50.752 17.2176 50.4775 18.0878C50.203 18.989 50.081 19.9525 50.081 21.0091C50.1115 22.532 50.325 23.713 50.752 24.521C51.179 25.3601 51.6975 25.9196 52.3075 26.2303C52.9175 26.5411 53.497 26.6965 54.046 26.6654C54.9305 26.6344 55.6015 26.4168 56.059 26.0439C56.5165 25.6399 56.852 25.2048 57.0655 24.7386H57.1265V25.8263C57.1265 26.4479 57.0655 27.0073 56.913 27.5667C56.7605 28.0951 56.486 28.5612 56.059 28.9031C55.632 29.245 54.9915 29.4314 54.1375 29.4314C53.4055 29.4004 52.765 29.3071 52.155 29.0896C51.5755 28.872 51.118 28.6545 50.7825 28.468L50.63 30.9232C50.9655 31.0475 51.484 31.2029 52.155 31.3583C52.826 31.5137 53.619 31.607 54.534 31.607C55.9065 31.607 56.974 31.3272 57.7365 30.7989C58.499 30.2706 59.0175 29.5558 59.3225 28.6545C59.6275 27.7532 59.78 26.6654 59.7495 25.4845V17.0622C59.7495 16.7514 59.7495 16.4717 59.78 16.1609C59.8105 15.8501 59.8105 15.5704 59.841 15.2596H57.3705C57.34 15.5393 57.3095 15.8501 57.279 16.1298ZM69.8755 24.1481L69.9365 24.1792C69.7535 24.3035 69.5095 24.3967 69.235 24.521C68.7775 24.7075 68.137 24.8007 67.3135 24.8318C66.2765 24.8318 65.514 24.5521 65.087 23.9927C64.6295 23.4333 64.416 22.6874 64.4465 21.6929H70.8515L69.8755 24.1481ZM64.9345 17.9013C65.27 17.3108 65.7885 16.9689 66.49 16.9378C67.1 16.9378 67.588 17.1865 67.893 17.6837C68.2285 18.181 68.381 18.958 68.381 19.9525H64.4465C64.4465 19.1755 64.599 18.4918 64.9345 17.9013ZM71.004 21.3199V21.1956C71.004 19.6417 70.7905 18.4296 70.3635 17.5594C69.967 16.6581 69.418 16.0366 68.7165 15.6636C68.0455 15.2907 67.283 15.1042 66.4595 15.1042C65.4835 15.1042 64.66 15.3839 63.9585 15.9123C63.257 16.4406 62.7385 17.1554 62.342 18.0567C61.976 18.958 61.7625 19.9835 61.7625 21.1335C61.7625 22.159 61.9455 23.1225 62.3115 23.9927C62.6775 24.8629 63.257 25.5466 64.0195 26.075C64.782 26.6033 65.7885 26.8519 67.0085 26.883C67.832 26.883 68.5335 26.7898 69.113 26.6033C69.6925 26.4479 70.1195 26.2925 70.4245 26.1371L70.3025 24.3656L72.9255 25.4223V17.1243C72.9255 16.8757 72.9255 16.6892 72.9255 16.4717L71.004 21.3199ZM94.428 16.9378C93.7265 16.9689 93.208 17.2797 92.8725 17.9013C92.537 18.5229 92.3845 19.2066 92.3845 19.9835H96.319C96.319 18.989 96.1665 18.2121 95.831 17.7148C95.526 17.1865 95.0685 16.9378 94.428 16.9378ZM93.0555 23.9927C93.513 24.5521 94.245 24.8318 95.282 24.8318C96.1055 24.8318 96.746 24.7075 97.2035 24.521C97.3865 24.4589 97.539 24.3656 97.6915 24.3035L98.7285 21.6929H92.3845C92.415 22.6874 92.6285 23.4644 93.0555 23.9927ZM106.598 15.0731C105.988 15.0731 105.469 15.1974 105.073 15.415C104.676 15.6325 104.34 15.8812 104.127 16.192C103.883 16.4717 103.7 16.7514 103.578 17H103.548C103.548 16.7203 103.548 16.4095 103.517 16.1298C103.487 15.8501 103.486 15.5393 103.456 15.2596H101.321L103.517 9.7276L79.5135 0L73.4135 15.2596H75.579C75.579 15.5704 75.6095 15.8501 75.64 16.1609C75.6705 16.4717 75.6705 16.7514 75.6705 17.0622H75.701C75.9145 16.596 76.25 16.1609 76.7075 15.7569C77.165 15.3528 77.8055 15.1353 78.568 15.1042C79.5135 15.1353 80.1845 15.3528 80.581 15.7879C80.9775 16.192 81.2825 16.5649 81.4045 16.9378C81.679 16.5027 82.045 16.0987 82.5025 15.7258C82.96 15.3528 83.631 15.1353 84.4545 15.1042C85.6745 15.1042 86.5285 15.5393 87.0165 16.3474C87.5045 17.1554 87.7485 18.2431 87.718 19.6728V26.7276H84.973V19.5174C84.973 18.8026 84.851 18.2742 84.6375 17.9324C84.3935 17.5905 84.0275 17.404 83.5395 17.404C82.9295 17.4351 82.472 17.6837 82.167 18.1499C81.862 18.6161 81.7095 19.1755 81.7095 19.8282V26.7587H78.9645V19.5484C78.9645 18.8336 78.8425 18.3053 78.629 17.9634C78.385 17.6216 78.019 17.4351 77.531 17.4351C76.921 17.4662 76.4635 17.7148 76.1585 18.181C75.8535 18.6472 75.701 19.2066 75.701 19.8592V26.6344L93.9095 34L96.807 26.7587C96.2885 26.883 95.709 26.9452 95.038 26.9452C93.818 26.9452 92.8115 26.6655 92.049 26.1371C91.2865 25.6088 90.707 24.925 90.341 24.0548C89.975 23.1846 89.792 22.2523 89.792 21.1956C89.792 20.0457 89.975 19.0201 90.3715 18.1188C90.7375 17.2175 91.2865 16.5027 91.988 15.9744C92.6895 15.4461 93.513 15.1664 94.489 15.1664C95.3125 15.1664 96.075 15.3218 96.746 15.7258C97.417 16.0987 97.966 16.7203 98.393 17.6216C98.7895 18.4918 99.003 19.7038 99.0335 21.2267L101.016 16.223C101.016 16.5338 101.047 16.8757 101.047 17.2176V26.7587H103.761V20.1079C103.761 19.362 103.883 18.7404 104.188 18.2121C104.493 17.7148 104.981 17.4351 105.683 17.4351C106.231 17.4351 106.628 17.6216 106.872 18.0256C107.116 18.4296 107.238 19.0512 107.238 19.9214V26.7898H109.952V19.4241C109.983 18.2431 109.739 17.2486 109.251 16.4406C108.763 15.5393 107.879 15.1042 106.598 15.0731ZM116.053 12.0585L113.338 12.8976V15.2596H111.538V17.2797H113.338V23.5265C113.338 24.7075 113.612 25.5777 114.161 26.075C114.711 26.6033 115.504 26.8519 116.51 26.8519C116.907 26.8519 117.272 26.8208 117.577 26.7276C117.882 26.6654 118.127 26.5722 118.34 26.479V24.521C118.249 24.5832 118.096 24.6453 117.943 24.6764C117.76 24.7386 117.547 24.7697 117.303 24.7697C116.907 24.7697 116.602 24.6764 116.388 24.4278C116.175 24.2102 116.083 23.7751 116.053 23.1846V17.2486H118.31V15.2285H116.053V12.0585ZM128.68 19.8282H133.651V17.5594H128.68V13.426H133.956V11.1883H125.873V26.6654H134.169V24.3967H128.68V19.8282ZM139.873 24.0548H139.842L137.525 15.2596H134.688L138.135 26.6965H141.337L144.814 15.2596H142.161L139.873 24.0548ZM148.535 19.9835C148.535 19.2066 148.688 18.4918 149.023 17.9013C149.359 17.3108 149.877 16.9689 150.578 16.9378C151.188 16.9378 151.677 17.1865 151.982 17.6837C152.317 18.181 152.469 18.958 152.469 19.9525H148.535V19.9835ZM152.836 15.6325C152.165 15.2596 151.402 15.0731 150.578 15.0731C149.602 15.0731 148.779 15.3528 148.077 15.8812C147.376 16.4095 146.857 17.1243 146.461 18.0256C146.095 18.9269 145.882 19.9525 145.882 21.1024C145.882 22.128 146.064 23.0914 146.431 23.9616C146.797 24.8318 147.376 25.5155 148.139 26.0439C148.901 26.5722 149.908 26.8208 151.127 26.8519C151.951 26.8519 152.652 26.7587 153.232 26.5722C153.812 26.4168 154.238 26.2614 154.544 26.106L154.422 23.9305C154.178 24.1481 153.842 24.3346 153.385 24.521C152.927 24.7075 152.286 24.8007 151.463 24.8318C150.426 24.8318 149.663 24.5521 149.236 23.9927C148.779 23.4333 148.565 22.6874 148.596 21.6929H155.154V21.1645C155.154 19.6106 154.94 18.3985 154.513 17.5283C154.056 16.6271 153.507 16.0055 152.836 15.6325ZM162.748 15.0731C162.138 15.0731 161.62 15.1974 161.223 15.415C160.827 15.6325 160.491 15.8812 160.277 16.192C160.034 16.4717 159.851 16.7514 159.729 17H159.698C159.698 16.7203 159.698 16.4095 159.668 16.1298C159.637 15.8501 159.637 15.5393 159.607 15.2596H157.045C157.075 15.5082 157.106 15.819 157.106 16.1298C157.106 16.4406 157.136 16.7825 157.136 17.1554V26.6965H159.851V20.0457C159.851 19.2998 159.973 18.6782 160.277 18.1499C160.583 17.6527 161.071 17.3729 161.772 17.3729C162.321 17.3729 162.718 17.5594 162.962 17.9634C163.206 18.3675 163.327 18.989 163.327 19.8592V26.7276H166.042V19.362C166.073 18.181 165.829 17.1865 165.341 16.3784C164.883 15.5393 163.999 15.1042 162.748 15.0731ZM172.173 12.0585L169.458 12.8976V15.2596H167.659V17.2797H169.458V23.5265C169.458 24.7075 169.733 25.5777 170.282 26.075C170.831 26.6033 171.624 26.8519 172.63 26.8519C173.027 26.8519 173.393 26.8208 173.698 26.7276C174.003 26.6654 174.247 26.5722 174.46 26.479V24.521C174.368 24.5832 174.216 24.6453 174.064 24.6764C173.881 24.7386 173.667 24.7697 173.423 24.7697C173.027 24.7697 172.722 24.6764 172.508 24.4278C172.295 24.2102 172.203 23.7751 172.173 23.1846V17.2486H174.43V15.2285H172.173V12.0585ZM182.482 21.8793C182.116 21.4442 181.597 21.0402 180.896 20.6051L179.554 19.7349C179.157 19.4863 178.852 19.2687 178.608 19.0512C178.395 18.8336 178.273 18.585 178.273 18.2742C178.273 17.9324 178.395 17.6527 178.639 17.4662C178.883 17.2797 179.279 17.1865 179.828 17.1554C180.316 17.1554 180.743 17.2176 181.14 17.3108C181.536 17.404 181.902 17.5283 182.238 17.6526L182.39 15.5082C182.238 15.4461 181.933 15.3528 181.414 15.2285C180.896 15.1042 180.286 15.042 179.554 15.042C178.334 15.0731 177.388 15.415 176.687 16.0676C175.985 16.7203 175.65 17.4662 175.619 18.2742C175.65 19.1444 175.894 19.8282 176.382 20.2943C176.87 20.7605 177.419 21.1645 177.998 21.4753L179.127 22.128C179.615 22.4077 179.95 22.6563 180.103 22.9049C180.255 23.1225 180.347 23.3711 180.347 23.5887C180.347 24.0238 180.164 24.3346 179.828 24.4899C179.493 24.6453 179.066 24.7386 178.577 24.7075C177.937 24.6764 177.358 24.5832 176.839 24.3967C176.321 24.2102 175.955 24.0548 175.741 23.9616L175.619 26.2614C175.924 26.3857 176.321 26.5101 176.87 26.6344C177.419 26.7587 178.059 26.8208 178.761 26.8208C180.011 26.8208 181.018 26.5101 181.811 25.9196C182.573 25.3291 182.969 24.521 183 23.4333C183 22.8428 182.817 22.3144 182.482 21.8793ZM7.442 22.7495H7.4115L4.209 11.1883H0V26.6654H2.562V13.7678H2.5925L6.283 26.6654H8.296L12.139 13.7678H12.1695V26.6654H14.7315V11.1883H10.675L7.442 22.7495Z" fill="white"/>
</svg>
