<?xml version="1.0" encoding="UTF-8"?>
<svg width="32px" height="32px" viewBox="0 0 32 32" version="1.1" xmlns="http://www.w3.org/2000/svg" xmlns:xlink="http://www.w3.org/1999/xlink">
    <title>EAS-blue</title>
    <g id="EAS-blue" stroke="none" stroke-width="1" fill="none" fill-rule="evenodd">
        <g id="Group" transform="translate(-0.000000, 0.000000)" fill="#166BFF">
            <path d="M16,1.77635684e-15 L16,16 C7.163444,16 -1.77635684e-15,8.836556 -1.77635684e-15,1.59872116e-14 L-1.77635684e-15,1.59872116e-14 L16,1.77635684e-15 Z" id="Combined-Shape-Copy-99" opacity="0.600000024" transform="translate(8.000000, 8.000000) rotate(-360.000000) translate(-8.000000, -8.000000) "></path>
            <path d="M32,1.77635684e-15 L32,16 C23.163444,16 16,8.836556 16,1.59872116e-14 L16,1.59872116e-14 L32,1.77635684e-15 Z" id="Combined-Shape-Copy-103" fill-rule="nonzero" opacity="0.400000006" transform="translate(24.000000, 8.000000) rotate(-360.000000) translate(-24.000000, -8.000000) "></path>
            <path d="M32,16 L32,32 C23.163444,32 16,24.836556 16,16 L16,16 L32,16 Z" id="Combined-Shape-Copy-104" opacity="0.600000024" transform="translate(24.000000, 24.000000) rotate(-360.000000) translate(-24.000000, -24.000000) "></path>
            <path d="M16,16 L16,32 C7.163444,32 -1.77635684e-15,24.836556 -1.77635684e-15,16 L-1.77635684e-15,16 L16,16 Z" id="Combined-Shape-Copy-100" transform="translate(8.000000, 24.000000) rotate(-360.000000) translate(-8.000000, -24.000000) "></path>
        </g>
    </g>
</svg>