<?xml version="1.0" encoding="UTF-8"?>
<svg width="32px" height="34px" viewBox="0 0 32 34" version="1.1" xmlns="http://www.w3.org/2000/svg" xmlns:xlink="http://www.w3.org/1999/xlink">
    <title>SI-blue</title>
    <g id="SI-blue" stroke="none" stroke-width="1" fill="none" fill-rule="evenodd">
        <g id="Group" transform="translate(0.001000, 1.776572)" fill="#166BFF" fill-rule="nonzero">
            <path d="M16.0000715,-7.15481651e-05 L16.0000715,8.0010719 L16.0000715,8.0010719 C11.582127,8.0010719 8.00061219,11.5822533 8.00007161,16.0000715 L7.15481656e-05,15.9999285 C7.15481656e-05,7.16337246 7.16351555,-7.15481651e-05 16.0000715,-7.15481651e-05 Z" id="Combined-Shape-Copy-52" opacity="0.5" transform="translate(8.000072, 8.000000) rotate(-270.000000) translate(-8.000072, -8.000000) "></path>
            <path d="M31.9977936,0.00120605435 L31.9977936,8.00120605 L31.9977936,8.00120605 C27.5795156,8.00120605 23.9977936,11.5829281 23.9977936,16.0012061 L15.9977936,16.0012061 C15.9977936,7.16465006 23.1612376,0.00120605435 31.9977936,0.00120605435 Z" id="Combined-Shape-Copy-54" opacity="0.5"></path>
            <path d="M16.0000715,15.9999285 L16.0000715,24.0010719 L16.0000715,24.0010719 C11.582127,24.0010719 8.00061219,27.5822533 8.00007161,32.0000715 L7.15481656e-05,31.9999285 C7.15481656e-05,23.1633725 7.16351555,15.9999285 16.0000715,15.9999285 Z" id="Combined-Shape-Copy-52" transform="translate(8.000072, 24.000000) rotate(-270.000000) translate(-8.000072, -24.000000) "></path>
            <path d="M31.9977936,16.0012061 L31.9977936,24.0012061 L31.9977936,24.0012061 C27.5795156,24.0012061 23.9977936,27.5829281 23.9977936,32.0012061 L15.9977936,32.0012061 C15.9977936,23.1646501 23.1612376,16.0012061 31.9977936,16.0012061 Z" id="Combined-Shape-Copy-54"></path>
        </g>
    </g>
</svg>